<?xml version="1.0" encoding="UTF-8"?>
<!DOCTYPE svg PUBLIC "-//W3C//DTD SVG 1.1//EN" "http://www.w3.org/Graphics/SVG/1.1/DTD/svg11.dtd">
<!-- Creator: CorelDRAW 2018 (64-Bit Evaluation Version) -->
<svg xmlns="http://www.w3.org/2000/svg" xml:space="preserve" width="284px" height="284px" version="1.1" style="shape-rendering:geometricPrecision; text-rendering:geometricPrecision; image-rendering:optimizeQuality; fill-rule:evenodd; clip-rule:evenodd"
viewBox="0 0 725.147 725.116"
 xmlns:xlink="http://www.w3.org/1999/xlink">
 <defs>
  <style type="text/css">
   <![CDATA[
    .fil0 {fill:#D61541}
   ]]>
  </style>
 </defs>
 <g id="Layer_x0020_1">
  <metadata id="CorelCorpID_0Corel-Layer"/>
  <path class="fil0" d="M619.396 574.044l-241.715 0c-8.34,0 -15.108,6.769 -15.108,15.109 0,8.339 6.768,15.107 15.108,15.107l241.716 0c8.339,0 15.108,-6.768 15.108,-15.107 0,-8.339 -6.77,-15.109 -15.109,-15.109zm-513.645 -362.573c-24.988,0 -45.322,20.334 -45.322,45.322 0,24.988 20.334,45.321 45.322,45.321 24.988,0 45.322,-20.333 45.322,-45.321 0,-24.988 -20.335,-45.322 -45.322,-45.322zm0 60.428c-8.34,0 -15.108,-6.768 -15.108,-15.108 0,-8.339 6.768,-15.107 15.108,-15.107 8.339,0 15.108,6.768 15.108,15.107 0,8.34 -6.769,15.108 -15.108,15.108zm513.645 120.859l-241.715 0c-8.34,0 -15.108,6.768 -15.108,15.107 0,8.34 6.768,15.108 15.108,15.108l241.716 0c8.339,0 15.108,-6.768 15.108,-15.108 0,-8.339 -6.77,-15.107 -15.109,-15.107zm0 60.428l-241.715 0c-8.34,0 -15.108,6.769 -15.108,15.108 0,8.339 6.768,15.107 15.108,15.107l241.716 0c8.339,0 15.108,-6.768 15.108,-15.107 0,-8.339 -6.77,-15.108 -15.109,-15.108zm0 -241.715l-241.715 0c-8.34,0 -15.108,6.769 -15.108,15.108 0,8.339 6.768,15.108 15.108,15.108l241.716 0c8.339,0 15.108,-6.769 15.108,-15.108 0,-8.339 -6.77,-15.108 -15.109,-15.108zm105.751 75.536l0 -60.429c0,-14.504 -4.322,-27.948 -11.451,-39.491 -0.211,-0.424 -0.242,-0.906 -0.483,-1.299l-93.424 -150.165c-13.868,-22.298 -37.858,-35.623 -64.145,-35.623l-386.05 0c-26.317,0 -50.278,13.325 -64.146,35.623l-93.422 150.165c-0.152,0.242 -0.152,0.514 -0.302,0.786 -7.313,11.632 -11.724,25.289 -11.724,40.004l0 60.429c0,24.775 12.176,46.651 30.698,60.429 -18.522,13.808 -30.698,35.653 -30.698,60.428l0 60.43c0,24.775 12.176,46.651 30.698,60.429 -18.522,13.807 -30.698,35.653 -30.698,60.428l0 60.429c0,41.635 33.9,75.536 75.535,75.536l574.074 0c41.636,0 75.536,-33.901 75.536,-75.536l0 -60.429c0,-24.775 -12.175,-46.651 -30.698,-60.43 18.524,-13.776 30.7,-35.652 30.7,-60.427l0 -60.43c0,-24.775 -12.176,-46.651 -30.698,-60.429 18.522,-13.776 30.698,-35.622 30.698,-60.428zm-594.047 -235.431c8.309,-13.385 22.69,-21.391 38.462,-21.391l386.051 0c15.771,0 30.154,8.006 38.462,21.391l62.333 100.161c-2.266,-0.211 -4.471,-0.695 -6.798,-0.695l-574.075 0c-2.326,0 -4.502,0.483 -6.768,0.695l62.333 -100.161zm563.833 537.575l0 60.429c0,24.988 -20.334,45.322 -45.322,45.322l-574.076 0c-24.988,0 -45.321,-20.334 -45.321,-45.322l0 -60.429c0,-24.988 20.333,-45.322 45.321,-45.322l574.074 0c24.989,0 45.324,20.335 45.324,45.322zm0 -181.287l0 60.43c0,24.988 -20.334,45.321 -45.322,45.321l-574.076 0c-24.988,0 -45.321,-20.333 -45.321,-45.321l0 -60.43c0,-24.988 20.333,-45.321 45.321,-45.321l574.074 0c24.989,0 45.324,20.335 45.324,45.321zm0 -120.857c0,24.987 -20.334,45.322 -45.322,45.322l-574.076 0c-24.988,0 -45.321,-20.335 -45.321,-45.322l0 -60.429c0,-24.988 20.333,-45.322 45.321,-45.322l574.074 0c24.988,0 45.323,20.334 45.323,45.322l0 60.429 0.001 0zm-75.537 -15.108l-241.715 0c-8.34,0 -15.108,6.768 -15.108,15.108 0,8.339 6.768,15.107 15.108,15.107l241.716 0c8.339,0 15.108,-6.768 15.108,-15.107 0,-8.34 -6.77,-15.108 -15.109,-15.108zm-513.645 120.859c-24.988,0 -45.322,20.334 -45.322,45.322 0,24.988 20.334,45.321 45.322,45.321 24.988,0 45.322,-20.333 45.322,-45.321 0,-24.988 -20.335,-45.322 -45.322,-45.322zm0 60.428c-8.34,0 -15.108,-6.768 -15.108,-15.107 0,-8.34 6.768,-15.108 15.108,-15.108 8.339,0 15.108,6.768 15.108,15.108 0,8.339 -6.769,15.107 -15.108,15.107zm0 120.858c-24.988,0 -45.322,20.335 -45.322,45.323 0,24.987 20.334,45.321 45.322,45.321 24.988,0 45.322,-20.334 45.322,-45.321 0,-24.988 -20.335,-45.323 -45.322,-45.323zm0 60.429c-8.34,0 -15.108,-6.769 -15.108,-15.108 0,-8.339 6.768,-15.108 15.108,-15.108 8.339,0 15.108,6.769 15.108,15.108 -0.002,8.341 -6.769,15.108 -15.108,15.108zm513.645 0l-241.715 0c-8.34,0 -15.108,6.768 -15.108,15.107 0,8.34 6.768,15.108 15.108,15.108l241.716 0c8.339,0 15.108,-6.768 15.108,-15.108 -0.002,-8.339 -6.77,-15.107 -15.109,-15.107z"/>
 </g>
</svg>
